<svg version="1.1" xmlns="http://www.w3.org/2000/svg" style="display: block;" viewBox="0 0 2048 2048" width="1024" height="1024" preserveAspectRatio="none">
<path transform="translate(0,0)" fill="rgb(16,37,92)" d="M 983.507 205.322 C 1435.29 183.013 1819.63 531.148 1841.99 982.931 C 1864.34 1434.71 1516.25 1819.09 1064.47 1841.49 C 612.62 1863.9 228.175 1515.74 205.817 1063.89 C 183.459 612.042 531.656 227.633 983.507 205.322 z"/>
<path transform="translate(0,0)" fill="rgb(254,254,254)" d="M 519.92 514.965 C 592.5 440.345 689.389 381.959 787.036 347.287 C 897.941 308.485 1016.67 297.459 1132.82 315.174 C 1158.34 319.005 1191.5 324.697 1214.47 335.772 C 1245.48 350.948 1269.28 377.722 1280.7 410.303 C 1286.07 426.025 1287.9 441.774 1287.07 458.486 C 1282.09 558.462 1179.24 605.549 1140 689.563 C 1114.57 744.004 1117.37 786.572 1136.45 840.904 C 1154.22 824.471 1171.39 805.556 1188.76 788.579 C 1198.47 779.081 1209.97 764.859 1221.31 758.178 C 1230.21 761.245 1233.09 763.096 1240.08 768.785 C 1254.74 779.011 1259.85 784.726 1270.11 799.641 C 1145.92 926.979 1026.31 1058.7 911.503 1194.56 C 846.164 1273.27 776.369 1361.33 726.809 1450.74 C 704.19 1491.55 681.53 1548.77 682.734 1595.09 C 683.505 1624.78 690.676 1643.12 707.415 1666.98 C 582.429 1602.62 485.683 1515.87 411.645 1395.03 C 400.002 1376.03 384.503 1350.07 376.779 1329.61 C 367.141 1312.21 358.059 1289.16 351.257 1270.55 C 324.036 1196.76 309.143 1119 307.174 1040.37 C 304.103 892.164 347.055 746.646 430.117 623.859 C 455.452 587.035 483.771 552.356 514.788 520.171 L 514.95 1276.82 C 538.998 1274.35 561.343 1271.1 584.51 1263.79 C 652.759 1242.25 727.814 1196.48 785.237 1153.93 L 784.702 916.209 C 793.798 928.344 807.111 951.112 815.815 964.413 C 839.491 1000.59 862.172 1037.69 886.416 1073.55 C 909.888 1056.47 942.037 1026.34 963.812 1006.5 C 1010.06 964.342 1055.69 921.5 1100.67 877.991 L 961.274 661.604 C 930.593 614.117 896.793 563.581 867.831 515.032 C 752.602 513.799 635.314 514.948 519.92 514.965 z"/>
<path transform="translate(0,0)" fill="rgb(245,120,31)" d="M 1240.08 768.785 C 1254.74 779.011 1259.85 784.726 1270.11 799.641 C 1145.92 926.979 1026.31 1058.7 911.503 1194.56 C 846.164 1273.27 776.369 1361.33 726.809 1450.74 C 704.19 1491.55 681.53 1548.77 682.734 1595.09 C 683.505 1624.78 690.676 1643.12 707.415 1666.98 C 582.429 1602.62 485.683 1515.87 411.645 1395.03 C 400.002 1376.03 384.503 1350.07 376.779 1329.61 C 382.944 1332.99 388.622 1339.76 394.195 1344.25 C 419.416 1364.52 456.045 1369.1 487.215 1365.42 C 679.93 1342.67 986.728 1035.04 1121.17 895.625 C 1148.5 867.576 1175.5 839.207 1202.16 810.525 C 1213.33 798.52 1230.27 781.257 1240.08 768.785 z"/>
<path transform="translate(0,0)" fill="rgb(16,37,92)" d="M 996.92 487.133 C 997.334 486.689 1002.15 462.839 1003.89 458.985 C 1007.46 451.037 1010.14 445.433 1015.46 438.333 C 1030.22 418.924 1052.07 406.164 1076.23 402.855 C 1108.26 398.535 1128.78 408.86 1153.09 427.618 C 1171.39 424.898 1260.08 409.713 1228.01 458.576 C 1219.1 472.138 1193.59 489.057 1179.53 498.14 C 1176.71 533.001 1161.45 558.376 1130.21 575.45 C 1097.95 593.075 1047.69 586.722 1024.25 557.277 C 992.943 563.514 901.498 569.042 960.791 512.658 C 970.973 502.975 984.736 494.238 996.92 487.133 z"/>
<path transform="translate(0,0)" fill="rgb(245,120,31)" d="M 996.92 487.133 C 997.334 486.689 1002.15 462.839 1003.89 458.985 C 1007.46 451.037 1010.14 445.433 1015.46 438.333 C 1030.22 418.924 1052.07 406.164 1076.23 402.855 C 1108.26 398.535 1128.78 408.86 1153.09 427.618 L 1160.65 437.375 C 1168.19 447.831 1170.8 453.08 1175.44 465.093 C 1137.09 494.368 1052.97 525.737 1004.76 528.909 C 1000.67 518.336 999.526 510.371 997.92 499.165 C 997.877 493.876 997.941 492.224 996.92 487.133 z"/>
<path transform="translate(0,0)" fill="rgb(245,120,31)" d="M 1179.53 498.14 C 1176.71 533.001 1161.45 558.376 1130.21 575.45 C 1097.95 593.075 1047.69 586.722 1024.25 557.277 C 1082.98 544.764 1127.06 528.122 1179.53 498.14 z"/>
<path transform="translate(0,0)" fill="rgb(254,254,254)" d="M 1160.65 437.375 C 1193.41 433.355 1205.08 441.137 1175.44 465.093 C 1170.8 453.08 1168.19 447.831 1160.65 437.375 z"/>
<path transform="translate(0,0)" fill="rgb(254,254,254)" d="M 997.92 499.165 C 999.526 510.371 1000.67 518.336 1004.76 528.909 C 965.919 529.816 970.96 516.851 997.92 499.165 z"/>
<path transform="translate(0,0)" fill="rgb(16,37,92)" d="M 426.341 1131.42 C 445.334 1129.03 462.693 1142.42 465.216 1161.39 C 467.74 1180.37 454.483 1197.82 435.527 1200.49 C 416.374 1203.18 398.694 1189.75 396.144 1170.58 C 393.595 1151.41 407.15 1133.83 426.341 1131.42 z"/>
<path transform="translate(0,0)" fill="rgb(254,254,254)" d="M 1261.4 842.698 C 1263.86 845.391 1262.82 925.85 1262.82 935.391 L 1263.27 1132.31 C 1253.75 1118.68 1243.41 1101.75 1234.23 1087.63 L 1169.88 988.207 C 1162.06 998.409 1152.02 1009.72 1143.65 1019.87 C 1126.53 1040.62 1109.54 1061.47 1092.66 1082.42 C 1055.2 1129.15 1018.78 1176.7 983.429 1225.05 C 989.282 1235.9 1001.32 1253.52 1008.21 1264.28 L 1058.15 1341.82 L 1130.89 1454.65 C 1147.46 1480.44 1164.89 1508.43 1182.23 1533.54 C 1296.25 1532.17 1412.82 1533.5 1527.08 1533.33 C 1485.94 1577.54 1419.86 1623.85 1367.3 1652.67 C 1277.53 1702.39 1177.98 1731.9 1075.61 1739.14 C 1016.25 1743.46 956.587 1740.25 898.04 1729.56 C 882.922 1726.83 866.849 1724.11 852.491 1718.56 C 837.802 1712.88 823.428 1703.76 811.644 1693.35 C 784.267 1669.17 769.857 1637.75 767.596 1601.43 C 755.31 1404 1128.55 993.813 1261.4 842.698 z"/>
<path transform="translate(0,0)" fill="rgb(16,37,92)" d="M 862.017 1517.15 C 864.087 1514.25 864.41 1508.75 865.518 1504.73 C 869.887 1488.88 873.413 1479.84 883.95 1467.12 C 898.987 1448.93 920.654 1437.47 944.159 1435.28 C 974.017 1432.51 995.5 1441.06 1017.97 1459.9 C 1041.17 1456.11 1126.89 1444.62 1094.05 1493.72 C 1082.44 1511.07 1060.38 1520.69 1045.35 1532.93 C 1041.22 1561.51 1032.43 1582.47 1008.38 1600.2 C 988.75 1614.73 964.137 1620.82 940 1617.13 C 918.256 1613.79 903.806 1604.92 888.599 1589.66 C 791.405 1606.2 775.341 1567.82 862.017 1517.15 z"/>
<path transform="translate(0,0)" fill="rgb(245,120,31)" d="M 862.017 1517.15 C 864.087 1514.25 864.41 1508.75 865.518 1504.73 C 869.887 1488.88 873.413 1479.84 883.95 1467.12 C 898.987 1448.93 920.654 1437.47 944.159 1435.28 C 974.017 1432.51 995.5 1441.06 1017.97 1459.9 C 1020.48 1462.61 1024.84 1467 1027.03 1469.72 C 1034.15 1481.41 1036.56 1486.35 1040.68 1499.33 C 996.959 1528.2 922.793 1557.78 869.857 1561.04 C 865.948 1551.03 863.174 1539.92 862.932 1529.15 C 863.037 1524.83 863.554 1521.1 862.017 1517.15 z"/>
<path transform="translate(0,0)" fill="rgb(245,120,31)" d="M 1045.35 1532.93 C 1041.22 1561.51 1032.43 1582.47 1008.38 1600.2 C 988.75 1614.73 964.137 1620.82 940 1617.13 C 918.256 1613.79 903.806 1604.92 888.599 1589.66 C 947.4 1580.44 993.384 1560.05 1045.35 1532.93 z"/>
<path transform="translate(0,0)" fill="rgb(254,254,254)" d="M 1027.03 1469.72 C 1034.92 1469.01 1049.54 1466.92 1055.86 1472.19 C 1066.49 1481.06 1047.41 1494.9 1040.68 1499.33 C 1036.56 1486.35 1034.15 1481.41 1027.03 1469.72 z"/>
<path transform="translate(0,0)" fill="rgb(254,254,254)" d="M 862.932 1529.15 C 863.174 1539.92 865.948 1551.03 869.857 1561.04 C 860.919 1561.25 848.923 1563.03 842.232 1556.2 C 838.567 1545.09 854.935 1535.37 862.932 1529.15 z"/>
<path transform="translate(0,0)" fill="rgb(254,254,254)" d="M 1533.29 520.556 C 1536.84 522.674 1542.96 529.997 1546.05 533.307 C 1678.29 674.719 1750.07 865.176 1740.12 1058.95 C 1733.45 1188.63 1694.94 1302.52 1625.89 1412.11 C 1599.52 1453.71 1567.37 1492.06 1533.25 1527.48 L 1533.29 520.556 z"/>
<path transform="translate(0,0)" fill="rgb(245,120,31)" d="M 1618.72 819.506 C 1631.28 817.897 1643.75 823.19 1651.31 833.353 C 1658.88 843.516 1660.38 856.97 1655.24 868.551 C 1650.1 880.132 1639.11 888.04 1626.49 889.24 C 1607.42 891.055 1590.42 877.238 1588.3 858.2 C 1586.18 839.161 1599.71 821.938 1618.72 819.506 z"/>
<path transform="translate(0,0)" fill="rgb(254,254,254)" d="M 1464.25 539.399 C 1467.65 538.891 1477.08 538.749 1480.95 538.602 C 1482.11 550.613 1482.14 562.707 1481.02 574.722 C 1474.14 646.277 1435.66 691.079 1383 734.193 C 1392.61 779.418 1369.82 810.929 1332.64 833.53 C 1327.04 836.931 1323.43 839.149 1317.25 841.489 C 1322.57 817.591 1326.62 796.926 1321.54 772.438 C 1313.73 775.584 1306.67 777.937 1298.66 780.573 C 1295.55 777.726 1292.24 774.276 1289.22 771.269 C 1277.17 758.099 1268.62 750.519 1255.2 739.18 C 1257.5 729.731 1259.45 722.619 1262.51 713.401 C 1234 710.536 1224.37 713.421 1196.93 720.556 C 1205.61 699.679 1219.01 676.061 1237.25 662.102 C 1256.69 647.224 1273.23 646.087 1296.54 648.985 C 1335.82 586.608 1389.76 547.205 1464.25 539.399 z"/>
<path transform="translate(0,0)" fill="rgb(16,37,92)" d="M 1391.25 601.551 C 1407.73 599.185 1423.04 610.536 1425.56 626.991 C 1428.08 643.445 1416.88 658.859 1400.45 661.537 C 1383.8 664.25 1368.13 652.861 1365.57 636.184 C 1363.02 619.508 1374.55 603.948 1391.25 601.551 z"/>
<path transform="translate(0,0)" fill="rgb(254,254,254)" d="M 755.708 826.252 C 761.928 827.562 763.111 828.266 768.672 831.255 C 758.889 857.489 745.829 886.954 735.015 913.168 L 663.764 1085.21 C 659.069 1083.55 655.458 1081.68 651.009 1079.51 C 659.441 1055.4 671.552 1028.75 681.434 1004.98 C 695.676 969.78 710.108 934.659 724.729 899.616 L 743.735 853.939 C 746.466 847.249 752.408 831.493 755.708 826.252 z"/>
<path transform="translate(0,0)" fill="rgb(254,254,254)" d="M 831.761 610.758 C 832.117 610.874 832.506 610.917 832.83 611.105 C 836.666 613.333 961.652 808.18 970.113 826.018 L 959.619 833.18 C 953.596 827.474 825.408 625.992 822.018 617.12 C 824.877 615.072 828.74 612.723 831.761 610.758 z"/>
<path transform="translate(0,0)" fill="rgb(254,254,254)" d="M 587.054 857.314 C 591.56 856.892 594.092 856.165 597.544 858.653 C 600.715 870.268 603.236 885.775 605.543 897.799 L 618.298 964.122 L 632.189 1034.08 C 634.682 1046.66 638.525 1064.13 639.903 1076.55 C 638.322 1079.37 638.577 1078.51 634.473 1079.89 C 633.427 1080.17 627.37 1081.92 626.988 1080.16 C 611.209 1007.44 597.009 933.372 583.77 860.09 C 583.574 859.005 586.209 857.845 587.054 857.314 z"/>
<path transform="translate(0,0)" fill="rgb(254,254,254)" d="M 1407.64 1221.03 L 1410.68 1221.43 C 1413.55 1224.57 1414.1 1228.84 1415.22 1233.12 C 1407.52 1236.06 1398.98 1238.72 1391.04 1241.1 C 1339.6 1256.56 1287.9 1272.67 1236.24 1287.31 C 1234.05 1287.63 1234.91 1287.61 1232.65 1286.95 C 1230.08 1283.64 1229.51 1278.85 1228.53 1274.58 C 1246.43 1267.91 1271.8 1261.6 1290.61 1255.98 C 1329.54 1244.07 1368.55 1232.42 1407.64 1221.03 z"/>
<path transform="translate(0,0)" fill="rgb(254,254,254)" d="M 1380.81 1030.97 C 1383.56 1031.12 1384.72 1032.45 1385.71 1034.98 C 1404.17 1082.33 1423.39 1130.26 1440.67 1178.03 C 1437.49 1179.78 1433.8 1181.54 1430.53 1183.2 C 1428.32 1182.96 1429.38 1183.18 1427.3 1181.68 C 1421.45 1169.65 1372.16 1040.96 1372.1 1035.3 C 1374.33 1032.85 1377.58 1032.14 1380.81 1030.97 z"/>
<path transform="translate(0,0)" fill="rgb(254,254,254)" d="M 814.081 799.269 C 839.964 805.964 869.635 817.231 895.768 825.293 C 907.501 828.913 943.003 840.294 952.035 845.092 L 947.833 857.314 C 926.843 852.335 894.218 840.238 872.683 833.388 C 854.542 827.618 827.06 819.163 810.042 812.308 L 814.081 799.269 z"/>
<path transform="translate(0,0)" fill="rgb(254,254,254)" d="M 766.514 587.034 L 768.271 587.524 C 770.785 590.961 771.858 595.755 773.148 599.942 C 730.998 614.802 684.329 627.494 641.323 640.753 L 639.281 640.616 C 636.581 637.163 635.629 632.219 634.373 627.86 C 640.331 625.681 646.171 623.808 652.248 622 C 690.452 610.631 728.264 598.259 766.514 587.034 z"/>
<path transform="translate(0,0)" fill="rgb(254,254,254)" d="M 794.126 617.797 C 798.385 617.763 802.38 617.98 805.929 620.398 C 810.227 627.46 792.745 719.381 792.61 733.051 C 792.58 736.07 789.679 754.621 788.858 758.316 L 774.601 756.5 C 780.076 713.103 786.556 660.578 794.126 617.797 z"/>
<path transform="translate(0,0)" fill="rgb(254,254,254)" d="M 1242.55 1431.7 C 1251.33 1429.95 1260.37 1433.06 1266.21 1439.85 C 1272.04 1446.64 1273.77 1456.04 1270.72 1464.46 C 1267.68 1472.88 1260.33 1479.01 1251.5 1480.49 C 1238.14 1482.73 1225.45 1473.83 1223 1460.5 C 1220.55 1447.17 1229.26 1434.34 1242.55 1431.7 z"/>
<path transform="translate(0,0)" fill="rgb(254,254,254)" d="M 639.581 1092.62 C 648.418 1091.86 656.982 1095.91 661.993 1103.23 C 667.003 1110.55 667.683 1120 663.772 1127.96 C 659.861 1135.92 651.965 1141.16 643.11 1141.66 C 629.693 1142.43 618.146 1132.29 617.181 1118.88 C 616.217 1105.48 626.193 1093.78 639.581 1092.62 z"/>
<path transform="translate(0,0)" fill="rgb(254,254,254)" d="M 801.644 558.5 C 814.841 556.012 827.591 564.577 830.279 577.735 C 832.966 590.893 824.594 603.772 811.479 606.658 C 802.816 608.564 793.798 605.655 787.883 599.046 C 781.967 592.437 780.071 583.153 782.922 574.754 C 785.772 566.355 792.927 560.143 801.644 558.5 z"/>
<path transform="translate(0,0)" fill="rgb(254,254,254)" d="M 1441.74 1192.44 C 1454.88 1188.78 1468.49 1196.54 1472.03 1209.72 C 1475.58 1222.9 1467.7 1236.44 1454.49 1239.87 C 1441.44 1243.25 1428.1 1235.49 1424.6 1222.47 C 1421.1 1209.46 1428.75 1196.05 1441.74 1192.44 z"/>
<path transform="translate(0,0)" fill="rgb(254,254,254)" d="M 577.065 797.571 C 590.187 794.101 603.633 801.943 607.073 815.073 C 610.513 828.202 602.638 841.63 589.501 845.039 C 576.407 848.436 563.033 840.594 559.605 827.508 C 556.177 814.422 563.987 801.031 577.065 797.571 z"/>
<path transform="translate(0,0)" fill="rgb(254,254,254)" d="M 595.349 621.601 C 608.49 618.173 621.913 626.083 625.281 639.239 C 628.649 652.396 620.679 665.783 607.507 669.092 C 594.42 672.379 581.136 664.471 577.79 651.398 C 574.443 638.326 582.291 625.007 595.349 621.601 z"/>
<path transform="translate(0,0)" fill="rgb(254,254,254)" d="M 1422.71 1381.63 C 1435.72 1377.75 1449.41 1385.2 1453.23 1398.23 C 1457.04 1411.27 1449.52 1424.92 1436.46 1428.67 C 1423.5 1432.38 1409.97 1424.93 1406.19 1411.99 C 1402.4 1399.05 1409.79 1385.48 1422.71 1381.63 z"/>
<path transform="translate(0,0)" fill="rgb(254,254,254)" d="M 984.179 837.69 C 997.507 837.042 1008.9 847.181 1009.81 860.495 C 1010.71 873.808 1000.79 885.396 987.498 886.557 C 978.669 887.327 970.112 883.268 965.123 875.942 C 960.134 868.616 959.492 859.167 963.444 851.233 C 967.396 843.3 975.326 838.121 984.179 837.69 z"/>
<path transform="translate(0,0)" fill="rgb(254,254,254)" d="M 1188.51 1268.45 C 1197.16 1266.13 1206.39 1268.72 1212.57 1275.21 C 1218.75 1281.7 1220.9 1291.05 1218.16 1299.58 C 1215.43 1308.11 1208.25 1314.47 1199.45 1316.16 C 1186.51 1318.64 1173.92 1310.43 1170.97 1297.58 C 1168.02 1284.73 1175.78 1271.86 1188.51 1268.45 z"/>
<path transform="translate(0,0)" fill="rgb(254,254,254)" d="M 1107.64 1151.45 C 1116.36 1149.98 1125.2 1153.32 1130.76 1160.2 C 1136.32 1167.07 1137.73 1176.42 1134.46 1184.63 C 1131.18 1192.85 1123.73 1198.66 1114.97 1199.83 C 1101.74 1201.59 1089.54 1192.44 1087.54 1179.24 C 1085.54 1166.05 1094.48 1153.69 1107.64 1151.45 z"/>
<path transform="translate(0,0)" fill="rgb(254,254,254)" d="M 773.702 770.328 C 786.988 768.559 799.213 777.838 801.083 791.11 C 802.954 804.383 793.769 816.679 780.511 818.651 C 767.11 820.644 754.65 811.337 752.759 797.92 C 750.869 784.504 760.271 772.116 773.702 770.328 z"/>
<path transform="translate(0,0)" fill="rgb(254,254,254)" d="M 1452.47 855.527 C 1465.45 852.398 1478.53 860.288 1481.81 873.227 C 1485.1 886.167 1477.37 899.341 1464.47 902.782 C 1455.98 905.044 1446.94 902.571 1440.79 896.306 C 1434.64 890.042 1432.33 880.954 1434.75 872.513 C 1437.16 864.073 1443.93 857.585 1452.47 855.527 z"/>
<path transform="translate(0,0)" fill="rgb(254,254,254)" d="M 1356.61 974.762 C 1364.93 972.167 1374.01 974.247 1380.37 980.207 C 1386.73 986.168 1389.4 995.088 1387.36 1003.56 C 1385.31 1012.04 1378.87 1018.76 1370.49 1021.17 C 1357.73 1024.82 1344.41 1017.54 1340.61 1004.83 C 1336.8 992.115 1343.94 978.71 1356.61 974.762 z"/>
<path transform="translate(0,0)" fill="rgb(254,254,254)" d="M 1389.57 1409.05 L 1391.88 1409.62 C 1394.17 1413.26 1394.81 1417.81 1395.81 1422.1 C 1362.21 1432.77 1322.57 1442.97 1288.23 1451.92 L 1286.61 1451.83 C 1282.93 1449.22 1280.96 1443.07 1282.92 1438.95 C 1290.01 1435.4 1311.43 1430.2 1319.89 1427.94 C 1343.16 1421.82 1366.39 1415.52 1389.57 1409.05 z"/>
<path transform="translate(0,0)" fill="rgb(254,254,254)" d="M 1437.28 1253.09 C 1438.13 1253.09 1438.98 1253.1 1439.82 1253.11 C 1444.34 1253.17 1447.45 1252.7 1450.54 1255.88 C 1450.95 1264.66 1448.1 1291.55 1446.99 1301.63 C 1444.6 1323.19 1443.21 1347.95 1439.99 1369.05 L 1426.64 1367.64 C 1426.85 1350.55 1429.67 1325.67 1431.29 1308.3 C 1432.69 1293.18 1434.56 1267.56 1437.28 1253.09 z"/>
<path transform="translate(0,0)" fill="rgb(254,254,254)" d="M 590.703 681.908 C 595.288 681.924 601.429 681.126 604.556 684.677 C 604.592 695.629 601.86 716.495 600.507 728.293 C 598.452 746.205 596.734 767.301 593.879 784.908 C 589.095 784.852 585.286 785.302 581.252 783.026 C 578.453 778.489 589.242 693.745 590.703 681.908 z"/>
<path transform="translate(0,0)" fill="rgb(254,254,254)" d="M 1209.3 1325.86 L 1211.85 1326.24 C 1215.45 1329.77 1239.66 1407.79 1241.4 1417.44 C 1239.51 1420.06 1235.64 1420.78 1232.38 1421.85 C 1229.48 1421.91 1230.69 1422.42 1228.52 1420.76 C 1224.79 1411.77 1200.19 1336.07 1200.31 1330.38 C 1202.55 1327.82 1205.99 1327.04 1209.3 1325.86 z"/>
<path transform="translate(0,0)" fill="rgb(254,254,254)" d="M 1429.4 904.64 C 1433.21 905.667 1437.38 909.841 1440.48 912.504 C 1431.15 926.926 1404.6 958.976 1393.04 972.526 C 1388.02 970.252 1386.33 968.253 1382.3 964.565 C 1392.13 949.003 1416.66 918.623 1429.4 904.64 z"/>
<path transform="translate(0,0)" fill="rgb(254,254,254)" d="M 1137.67 1201.66 C 1145.17 1206.61 1172.98 1249.24 1178.93 1258.46 L 1167.98 1265.21 L 1166.9 1265.04 C 1163.94 1263.07 1131 1215.71 1127.44 1209.66 C 1130.53 1206.79 1134.26 1204.19 1137.67 1201.66 z"/>
</svg>